<svg width="512" height="512" viewBox="0 0 512 512" fill="none" xmlns="http://www.w3.org/2000/svg">
  <defs>
    <linearGradient id="bg" x1="64" y1="48" x2="448" y2="464" gradientUnits="userSpaceOnUse">
      <stop stop-color="#F8FBFF"/>
      <stop offset="1" stop-color="#DEE8FF"/>
    </linearGradient>
    <linearGradient id="line" x1="112" y1="116" x2="404" y2="330" gradientUnits="userSpaceOnUse">
      <stop stop-color="#6C7EFF"/>
      <stop offset="1" stop-color="#3478F6"/>
    </linearGradient>
    <filter id="shadow" x="20" y="18" width="472" height="476" filterUnits="userSpaceOnUse" color-interpolation-filters="sRGB">
      <feFlood flood-opacity="0" result="BackgroundImageFix"/>
      <feColorMatrix in="SourceAlpha" type="matrix" values="0 0 0 0 0 0 0 0 0 0 0 0 0 0 0 0 0 0 127 0" result="hardAlpha"/>
      <feOffset dy="16"/>
      <feGaussianBlur stdDeviation="18"/>
      <feColorMatrix type="matrix" values="0 0 0 0 0.309804 0 0 0 0 0.27451 0 0 0 0 0.898039 0 0 0 0.16 0"/>
      <feBlend mode="normal" in2="BackgroundImageFix" result="effect1_dropShadow_1_2"/>
      <feBlend mode="normal" in="SourceGraphic" in2="effect1_dropShadow_1_2" result="shape"/>
    </filter>
  </defs>
  <g filter="url(#shadow)">
    <rect x="40" y="36" width="432" height="432" rx="136" fill="url(#bg)"/>
    <path d="M102 148C102 132.536 114.536 120 130 120H350C365.464 120 378 132.536 378 148C378 163.464 365.464 176 350 176H130C114.536 176 102 163.464 102 148Z" fill="url(#line)"/>
    <path d="M102 256C102 240.536 114.536 228 130 228H286C301.464 228 314 240.536 314 256C314 271.464 301.464 284 286 284H130C114.536 284 102 271.464 102 256Z" fill="url(#line)"/>
    <path d="M102 364C102 348.536 114.536 336 130 336H224C239.464 336 252 348.536 252 364C252 379.464 239.464 392 224 392H130C114.536 392 102 379.464 102 364Z" fill="url(#line)"/>
    <circle cx="378" cy="148" r="40" fill="#4F46E5"/>
    <circle cx="378" cy="148" r="16" fill="white" fill-opacity="0.98"/>
  </g>
</svg>
